<svg width="646" height="192" viewBox="0 0 646 192" fill="none" xmlns="http://www.w3.org/2000/svg">
<g clip-path="url(#clip0_597_16553)">
<path d="M622.07 191.41H23.93C10.77 191.41 0 180.64 0 167.48V23.93C0 10.77 10.77 0 23.93 0H622.07C635.23 0 646 10.77 646 23.93V167.48C646 180.64 635.23 191.41 622.07 191.41Z" fill="black"/>
<path d="M337.58 61.06C335.22 59.67 333.37 57.79 332.02 55.42C330.67 53.05 330 50.43 330 47.57C330 44.71 330.67 42.1 332.02 39.72C333.37 37.35 335.22 35.47 337.58 34.08C339.94 32.69 342.56 32 345.45 32C348.34 32 350.95 32.69 353.3 34.08C355.64 35.47 357.49 37.35 358.84 39.72C360.19 42.09 360.86 44.71 360.86 47.57C360.86 50.43 360.19 53.04 358.84 55.42C357.49 57.79 355.65 59.67 353.3 61.06C350.95 62.45 348.34 63.14 345.45 63.14C342.56 63.14 339.94 62.45 337.58 61.06ZM350.92 57.38C352.57 56.42 353.88 55.09 354.83 53.38C355.79 51.67 356.27 49.74 356.27 47.57C356.27 45.4 355.79 43.47 354.83 41.76C353.87 40.05 352.57 38.72 350.92 37.76C349.27 36.8 347.44 36.32 345.45 36.32C343.46 36.32 341.63 36.8 339.98 37.76C338.33 38.72 337.02 40.05 336.07 41.76C335.11 43.47 334.63 45.4 334.63 47.57C334.63 49.74 335.11 51.67 336.07 53.38C337.03 55.09 338.33 56.42 339.98 57.38C341.63 58.34 343.46 58.82 345.45 58.82C347.44 58.82 349.27 58.34 350.92 57.38Z" fill="white"/>
<path d="M366.76 33H372.17L385.66 54.9H385.91L385.66 49.15V33H390.2V62.81H385.45L371.3 39.79H371.05L371.3 45.54V62.82H366.76V33.01V33Z" fill="white"/>
<path d="M302.37 37.33H294V33H315.27V37.33H306.94V62.81H302.36V37.33H302.37Z" fill="white"/>
<path d="M622.07 3.83C633.15 3.83 642.17 12.85 642.17 23.93V167.48C642.17 178.56 633.15 187.58 622.07 187.58H23.93C12.85 187.58 3.83 178.56 3.83 167.48V23.93C3.83 12.84 12.84 3.83 23.93 3.83H622.07ZM622.07 0H23.93C10.77 0 0 10.77 0 23.93V167.48C0 180.64 10.77 191.41 23.93 191.41H622.07C635.23 191.41 646 180.64 646 167.48V23.93C646 10.77 635.23 0 622.07 0Z" fill="#A6A5A5"/>
<path d="M326.04 104.08C314.79 104.08 305.61 112.64 305.61 124.44C305.61 136.24 314.78 144.79 326.04 144.79C337.3 144.79 346.47 136.15 346.47 124.44C346.47 112.73 337.3 104.08 326.04 104.08ZM326.04 136.77C319.87 136.77 314.55 131.68 314.55 124.44C314.55 117.2 319.87 112.1 326.04 112.1C332.21 112.1 337.52 117.11 337.52 124.44C337.52 131.77 332.2 136.77 326.04 136.77ZM281.47 104.08C270.22 104.08 261.04 112.64 261.04 124.44C261.04 136.24 270.21 144.79 281.47 144.79C292.73 144.79 301.9 136.15 301.9 124.44C301.9 112.73 292.72 104.08 281.47 104.08M281.47 136.77C275.31 136.77 269.99 131.68 269.99 124.44C269.99 117.2 275.31 112.1 281.47 112.1C287.63 112.1 292.96 117.11 292.96 124.44C292.96 131.77 287.64 136.77 281.47 136.77ZM228.46 110.33V118.96H249.12C248.5 123.82 246.89 127.36 244.42 129.83C241.41 132.84 236.71 136.15 228.46 136.15C215.74 136.15 205.79 125.9 205.79 113.18C205.79 100.46 215.73 90.21 228.46 90.21C235.32 90.21 240.33 92.9 244.03 96.37L250.12 90.28C244.95 85.35 238.09 81.57 228.46 81.57C211.04 81.57 196.39 95.76 196.39 113.18C196.39 130.6 211.04 144.79 228.46 144.79C237.86 144.79 244.95 141.7 250.51 135.92C256.21 130.22 257.99 122.2 257.99 115.72C257.99 113.71 257.84 111.87 257.53 110.33H228.47H228.46ZM445.27 117.03C443.57 112.48 438.41 104.08 427.85 104.08C417.29 104.08 408.66 112.33 408.66 124.44C408.66 135.85 417.29 144.79 428.85 144.79C438.18 144.79 443.57 139.09 445.81 135.77L438.87 131.14C436.55 134.53 433.4 136.77 428.85 136.77C424.3 136.77 421.06 134.69 418.98 130.61L446.19 119.35L445.27 117.04V117.03ZM417.52 123.82C417.29 115.95 423.61 111.95 428.16 111.95C431.71 111.95 434.72 113.72 435.72 116.27L417.53 123.83L417.52 123.82ZM395.39 143.55H404.33V83.73H395.39V143.55ZM380.74 108.63H380.43C378.43 106.24 374.57 104.08 369.72 104.08C359.54 104.08 350.22 113.02 350.22 124.51C350.22 136 359.55 144.78 369.72 144.78C374.58 144.78 378.43 142.62 380.43 140.15H380.74V143.08C380.74 150.87 376.58 155.03 369.87 155.03C364.4 155.03 361 151.1 359.62 147.79L351.83 151.03C354.06 156.43 360 163.06 369.87 163.06C380.35 163.06 389.22 156.89 389.22 141.86V105.32H380.74V108.64V108.63ZM370.49 136.77C364.32 136.77 359.16 131.61 359.16 124.52C359.16 117.43 364.32 112.11 370.49 112.11C376.66 112.11 381.36 117.35 381.36 124.52C381.36 131.69 376.58 136.77 370.49 136.77ZM487.16 83.74H465.77V143.56H474.69V120.9H487.16C497.06 120.9 506.78 113.73 506.78 102.32C506.78 90.91 497.05 83.74 487.16 83.74M487.39 112.57H474.69V92.06H487.39C494.07 92.06 497.86 97.59 497.86 102.31C497.86 107.03 494.07 112.56 487.39 112.56M542.57 103.97C536.11 103.97 529.41 106.82 526.64 113.12L534.57 116.43C536.26 113.12 539.42 112.04 542.73 112.04C547.35 112.04 552.04 114.81 552.12 119.73V120.35C550.5 119.43 547.04 118.04 542.81 118.04C534.27 118.04 525.57 122.73 525.57 131.51C525.57 139.52 532.58 144.67 540.42 144.67C546.43 144.67 549.73 141.98 551.81 138.82H552.12V143.44H560.74V120.5C560.74 109.88 552.82 103.96 542.58 103.96M541.5 136.74C538.57 136.74 534.49 135.28 534.49 131.66C534.49 127.04 539.57 125.28 543.96 125.28C547.88 125.28 549.73 126.13 552.12 127.28C551.43 132.82 546.66 136.75 541.5 136.75M592.14 105.27L581.9 131.21H581.59L570.97 105.27H561.35L577.28 141.52L568.2 161.68H577.51L602.06 105.27H592.13H592.14ZM511.72 143.54H520.65V83.72H511.72V143.54Z" fill="white"/>
<path d="M99.14 92.95L48.19 147.02C48.19 147.02 48.19 147.04 48.19 147.05C49.75 152.92 55.11 157.24 61.48 157.24C64.03 157.24 66.41 156.55 68.46 155.34L68.62 155.24L125.97 122.15L99.13 92.93L99.14 92.95Z" fill="#EA4435"/>
<path d="M150.68 83.74L150.63 83.71L125.87 69.36L97.98 94.18L125.97 122.16L150.59 107.95C154.91 105.61 157.84 101.06 157.84 95.82C157.84 90.58 154.95 86.08 150.67 83.74" fill="#F9BC15"/>
<path d="M48.19 44.39C47.88 45.52 47.72 46.71 47.72 47.93V143.48C47.72 144.71 47.88 145.89 48.19 147.02L100.88 94.33L48.19 44.39Z" fill="#547DBF"/>
<path d="M99.51 95.71L125.88 69.35L68.6 36.14C66.52 34.89 64.09 34.17 61.49 34.17C55.13 34.17 49.76 38.5 48.19 44.38C48.19 44.38 48.19 44.38 48.19 44.39L99.52 95.71H99.51Z" fill="#33A851"/>
<path d="M226.8 33H244.87V37.33H231.38V45.74H243.54V50.07H231.38V58.48H244.87V62.81H226.8V33V33Z" fill="white"/>
<path d="M257.44 37.33H249.07V33H270.34V37.33H262.01V62.81H257.43V37.33H257.44Z" fill="white"/>
<path d="M285 33H289.58V62.81H285V33V33Z" fill="white"/>
<path d="M217.173 41.9453C216.891 41.0515 216.512 40.251 216.036 39.5437C215.569 38.8267 215.01 38.2177 214.359 37.7167C213.708 37.206 212.964 36.818 212.128 36.5528C211.302 36.2875 210.393 36.1549 209.401 36.1549C207.719 36.1549 206.203 36.592 204.851 37.4663C203.5 38.3405 202.431 39.6223 201.643 41.3118C200.866 42.9914 200.477 45.0493 200.477 47.4853C200.477 49.9311 200.87 51.9987 201.658 53.6882C202.445 55.3777 203.524 56.6595 204.895 57.5337C206.266 58.408 207.826 58.8451 209.576 58.8451C211.199 58.8451 212.614 58.5111 213.819 57.8432C215.035 57.1752 215.973 56.2323 216.634 55.0143C217.305 53.7864 217.64 52.3425 217.64 50.6825H210.261V47.1464H222V50.5794C222 53.1136 221.465 55.3138 220.396 57.1801C219.336 59.0366 217.868 60.4707 215.992 61.4824C214.126 62.4941 211.987 63 209.576 63C206.873 63 204.501 62.3714 202.46 61.1141C200.428 59.8568 198.844 58.074 197.706 55.7657C196.569 53.4476 196 50.6972 196 47.5147C196 45.1082 196.331 42.9472 196.992 41.0318C197.653 39.1164 198.581 37.4908 199.777 36.1549C200.982 34.8093 202.397 33.7828 204.02 33.0756C205.653 32.3585 207.437 32 209.372 32C210.986 32 212.488 32.2407 213.878 32.722C215.278 33.2033 216.522 33.8859 217.611 34.77C218.709 35.654 219.618 36.705 220.338 37.923C221.057 39.1312 221.543 40.472 221.796 41.9453H217.173Z" fill="white"/>
</g>
<defs>
<clipPath id="clip0_597_16553">
<rect width="646" height="191.41" fill="white"/>
</clipPath>
</defs>
</svg>
